<svg width="42" height="20" viewBox="0 0 42 20" fill="none" xmlns="http://www.w3.org/2000/svg">
<path fill-rule="evenodd" clip-rule="evenodd" d="M13.44 0H21L26.04 4.7619V7.61905H35.28L42 12.381V17.1429H35.28L34.1261 14.5263C33.8063 13.8012 33.0886 13.3333 32.2962 13.3333H30.5812C29.8526 13.3333 29.1815 13.7297 28.8297 14.3678L27.3 17.1429H12.6L11.4461 14.5263C11.1263 13.8012 10.4086 13.3333 9.61615 13.3333H8.02385C7.23138 13.3333 6.51366 13.8012 6.19389 14.5263L5.04 17.1429H1C0.447717 17.1429 0 16.6951 0 16.1429V8.61905C0 8.06676 0.447715 7.61905 1 7.61905H9.24V4.7619L13.44 0ZM14.28 7.61905H21.84V4.7619L19.32 1.90476H14.28V7.61905ZM8.4 20C9.79176 20 10.92 18.7208 10.92 17.1429C10.92 15.5649 9.79176 14.2857 8.4 14.2857C7.00825 14.2857 5.88 15.5649 5.88 17.1429C5.88 18.7208 7.00825 20 8.4 20ZM34.44 17.1429C34.44 18.7208 33.3118 20 31.92 20C30.5282 20 29.4 18.7208 29.4 17.1429C29.4 15.5649 30.5282 14.2857 31.92 14.2857C33.3118 14.2857 34.44 15.5649 34.44 17.1429Z" fill="#FFC700"/>
</svg>
