<?xml version="1.0" encoding="UTF-8"?>
<svg xmlns="http://www.w3.org/2000/svg" xmlns:xlink="http://www.w3.org/1999/xlink" width="32pt" height="32pt" viewBox="0 0 32 32" version="1.1">
<g id="surface1">
<path style=" stroke:none;fill-rule:nonzero;fill:rgb(0%,0%,0%);fill-opacity:1;" d="M 25.90625 11.78125 L 23.890625 11.78125 L 24.5 4.8125 C 24.5 4.800781 24.5 4.789062 24.5 4.777344 C 24.5 4.773438 24.5 4.773438 24.5 4.773438 C 24.5 4.582031 24.386719 4.414062 24.21875 4.34375 C 24.214844 4.34375 24.214844 4.339844 24.214844 4.339844 C 24.203125 4.335938 24.191406 4.332031 24.179688 4.328125 C 24.175781 4.328125 24.171875 4.324219 24.167969 4.324219 C 24.160156 4.320312 24.152344 4.320312 24.140625 4.316406 C 24.136719 4.316406 24.128906 4.316406 24.125 4.3125 C 24.113281 4.3125 24.105469 4.3125 24.097656 4.308594 C 24.089844 4.308594 24.082031 4.308594 24.074219 4.304688 C 24.074219 4.304688 24.074219 4.304688 24.070312 4.304688 C 24.0625 4.304688 24.054688 4.304688 24.046875 4.304688 C 24.042969 4.304688 24.035156 4.304688 24.03125 4.304688 L 14.4375 4.304688 C 14.179688 4.304688 13.96875 4.515625 13.96875 4.773438 C 13.96875 5.03125 14.179688 5.242188 14.4375 5.242188 L 23.519531 5.242188 L 22.585938 15.953125 C 22.585938 15.953125 22.585938 15.953125 22.585938 15.957031 L 22.351562 18.65625 L 6.0625 18.65625 L 6.335938 15.84375 L 9.4375 15.84375 C 9.695312 15.84375 9.90625 15.636719 9.90625 15.375 C 9.90625 15.117188 9.695312 14.90625 9.4375 14.90625 L 6.425781 14.90625 L 7.003906 8.96875 L 11.9375 8.96875 C 12.195312 8.96875 12.40625 8.761719 12.40625 8.5 C 12.40625 8.242188 12.195312 8.03125 11.9375 8.03125 L 7.09375 8.03125 L 7.363281 5.242188 L 12.5625 5.242188 C 12.820312 5.242188 13.03125 5.03125 13.03125 4.773438 C 13.03125 4.515625 12.820312 4.304688 12.5625 4.304688 L 6.9375 4.304688 C 6.71875 4.304688 6.527344 4.460938 6.480469 4.675781 C 6.480469 4.675781 6.480469 4.675781 6.480469 4.679688 C 6.476562 4.691406 6.476562 4.703125 6.472656 4.714844 C 6.472656 4.71875 6.472656 4.722656 6.472656 4.726562 L 6.152344 8.03125 L 0.46875 8.03125 C 0.210938 8.03125 0 8.242188 0 8.5 C 0 8.761719 0.210938 8.96875 0.46875 8.96875 L 6.058594 8.96875 L 5.484375 14.90625 L 3.8125 14.90625 C 3.554688 14.90625 3.34375 15.117188 3.34375 15.375 C 3.34375 15.636719 3.554688 15.84375 3.8125 15.84375 L 5.394531 15.84375 L 5.082031 19.078125 L 4.597656 24.078125 L 4.597656 24.082031 C 4.59375 24.089844 4.59375 24.09375 4.59375 24.101562 C 4.59375 24.109375 4.59375 24.117188 4.59375 24.125 C 4.59375 24.128906 4.59375 24.128906 4.59375 24.128906 C 4.59375 24.140625 4.59375 24.152344 4.597656 24.164062 C 4.597656 24.167969 4.597656 24.171875 4.597656 24.175781 C 4.597656 24.1875 4.601562 24.199219 4.601562 24.210938 C 4.601562 24.214844 4.601562 24.21875 4.605469 24.222656 C 4.605469 24.230469 4.609375 24.238281 4.609375 24.25 C 4.613281 24.253906 4.613281 24.261719 4.613281 24.265625 C 4.617188 24.269531 4.617188 24.269531 4.617188 24.273438 C 4.640625 24.339844 4.679688 24.402344 4.726562 24.457031 C 4.730469 24.457031 4.730469 24.457031 4.730469 24.457031 C 4.734375 24.464844 4.742188 24.46875 4.746094 24.472656 C 4.777344 24.503906 4.816406 24.527344 4.855469 24.546875 C 4.863281 24.550781 4.871094 24.554688 4.878906 24.558594 C 4.882812 24.558594 4.886719 24.5625 4.886719 24.5625 C 4.898438 24.566406 4.910156 24.570312 4.925781 24.574219 C 4.941406 24.578125 4.957031 24.582031 4.96875 24.585938 C 4.972656 24.585938 4.972656 24.585938 4.976562 24.585938 C 4.988281 24.589844 5.003906 24.59375 5.015625 24.59375 C 5.03125 24.59375 5.046875 24.59375 5.0625 24.59375 L 7.152344 24.59375 C 7.382812 26.34375 8.878906 27.695312 10.6875 27.695312 C 12.496094 27.695312 13.996094 26.34375 14.226562 24.59375 L 21.742188 24.59375 C 21.972656 26.34375 23.472656 27.695312 25.28125 27.695312 C 27.089844 27.695312 28.589844 26.34375 28.820312 24.59375 L 30.90625 24.59375 C 30.921875 24.59375 30.9375 24.59375 30.953125 24.59375 C 30.957031 24.59375 30.957031 24.59375 30.960938 24.59375 C 30.972656 24.589844 30.984375 24.589844 30.996094 24.585938 C 31.003906 24.585938 31.007812 24.585938 31.011719 24.582031 C 31.023438 24.582031 31.03125 24.578125 31.039062 24.574219 C 31.046875 24.574219 31.050781 24.570312 31.058594 24.570312 C 31.066406 24.566406 31.074219 24.566406 31.082031 24.5625 C 31.085938 24.558594 31.09375 24.554688 31.101562 24.554688 C 31.105469 24.550781 31.113281 24.546875 31.121094 24.542969 C 31.125 24.539062 31.132812 24.535156 31.140625 24.535156 C 31.144531 24.53125 31.152344 24.527344 31.15625 24.523438 C 31.164062 24.519531 31.167969 24.515625 31.175781 24.511719 C 31.183594 24.503906 31.1875 24.5 31.195312 24.496094 C 31.199219 24.492188 31.203125 24.488281 31.210938 24.484375 C 31.214844 24.476562 31.222656 24.472656 31.226562 24.46875 C 31.230469 24.464844 31.238281 24.457031 31.242188 24.453125 C 31.246094 24.449219 31.253906 24.441406 31.257812 24.433594 C 31.261719 24.429688 31.265625 24.425781 31.269531 24.421875 C 31.277344 24.414062 31.28125 24.40625 31.289062 24.398438 C 31.292969 24.394531 31.292969 24.390625 31.296875 24.386719 C 31.304688 24.375 31.308594 24.363281 31.316406 24.351562 C 31.324219 24.335938 31.332031 24.324219 31.335938 24.308594 C 31.339844 24.304688 31.339844 24.300781 31.34375 24.296875 C 31.347656 24.289062 31.351562 24.277344 31.351562 24.269531 C 31.355469 24.261719 31.355469 24.253906 31.359375 24.25 C 31.359375 24.242188 31.363281 24.234375 31.363281 24.226562 C 31.367188 24.21875 31.367188 24.210938 31.367188 24.203125 C 31.367188 24.199219 31.371094 24.191406 31.371094 24.183594 C 31.390625 24.027344 31.757812 21.082031 31.921875 19.175781 C 31.921875 19.175781 31.921875 19.171875 31.921875 19.171875 C 31.96875 18.621094 32 18.160156 32 17.875 C 32 14.515625 29.265625 11.78125 25.90625 11.78125 Z M 23.808594 12.71875 L 25.726562 12.71875 L 25.484375 15.53125 L 23.566406 15.53125 Z M 10.6875 26.757812 C 9.238281 26.757812 8.054688 25.578125 8.054688 24.125 C 8.054688 22.675781 9.238281 21.496094 10.6875 21.496094 C 12.140625 21.496094 13.320312 22.675781 13.320312 24.125 C 13.320312 25.578125 12.140625 26.757812 10.6875 26.757812 Z M 25.28125 26.757812 C 23.832031 26.757812 22.648438 25.578125 22.648438 24.125 C 22.648438 22.675781 23.832031 21.496094 25.28125 21.496094 C 26.730469 21.496094 27.914062 22.675781 27.914062 24.125 C 27.914062 25.578125 26.730469 26.757812 25.28125 26.757812 Z M 30.492188 23.65625 L 28.820312 23.65625 C 28.589844 21.910156 27.089844 20.558594 25.28125 20.558594 C 23.472656 20.558594 21.972656 21.910156 21.742188 23.65625 L 14.226562 23.65625 C 13.996094 21.910156 12.496094 20.558594 10.6875 20.558594 C 8.878906 20.558594 7.382812 21.910156 7.152344 23.65625 L 5.578125 23.65625 L 5.972656 19.59375 L 22.78125 19.59375 C 22.796875 19.59375 22.8125 19.59375 22.828125 19.59375 C 22.832031 19.59375 22.835938 19.59375 22.835938 19.589844 C 22.847656 19.589844 22.863281 19.589844 22.875 19.585938 C 22.878906 19.585938 22.882812 19.582031 22.890625 19.582031 C 22.898438 19.578125 22.90625 19.578125 22.917969 19.574219 C 22.921875 19.574219 22.929688 19.570312 22.933594 19.570312 C 22.941406 19.566406 22.949219 19.5625 22.957031 19.558594 C 22.964844 19.558594 22.972656 19.554688 22.976562 19.550781 C 22.984375 19.546875 22.992188 19.546875 23 19.542969 C 23.003906 19.539062 23.011719 19.535156 23.015625 19.53125 C 23.023438 19.527344 23.03125 19.523438 23.035156 19.519531 C 23.042969 19.515625 23.046875 19.511719 23.054688 19.507812 C 23.058594 19.503906 23.066406 19.5 23.070312 19.492188 C 23.078125 19.488281 23.082031 19.484375 23.089844 19.480469 C 23.09375 19.476562 23.101562 19.46875 23.105469 19.464844 C 23.109375 19.460938 23.113281 19.457031 23.121094 19.449219 C 23.125 19.445312 23.128906 19.4375 23.136719 19.433594 C 23.140625 19.425781 23.144531 19.421875 23.148438 19.417969 C 23.152344 19.410156 23.160156 19.40625 23.164062 19.398438 C 23.167969 19.390625 23.171875 19.386719 23.175781 19.382812 C 23.179688 19.375 23.183594 19.367188 23.1875 19.359375 C 23.191406 19.355469 23.195312 19.347656 23.195312 19.34375 C 23.199219 19.335938 23.203125 19.328125 23.207031 19.320312 C 23.210938 19.316406 23.214844 19.308594 23.214844 19.304688 C 23.21875 19.296875 23.222656 19.289062 23.222656 19.28125 C 23.226562 19.273438 23.230469 19.265625 23.230469 19.261719 C 23.234375 19.253906 23.234375 19.246094 23.234375 19.238281 C 23.238281 19.230469 23.238281 19.222656 23.242188 19.214844 C 23.242188 19.207031 23.242188 19.199219 23.246094 19.195312 C 23.246094 19.1875 23.246094 19.179688 23.25 19.171875 C 23.25 19.167969 23.25 19.167969 23.25 19.167969 L 23.484375 16.46875 L 25.90625 16.46875 C 27.34375 16.46875 27.988281 17.214844 28.675781 18.003906 C 29.242188 18.652344 29.875 19.378906 30.945312 19.554688 C 30.8125 20.996094 30.589844 22.847656 30.492188 23.65625 Z M 31.027344 18.613281 C 30.332031 18.472656 29.902344 17.984375 29.382812 17.386719 C 28.734375 16.640625 27.941406 15.730469 26.421875 15.5625 L 26.664062 12.777344 C 29.148438 13.144531 31.0625 15.289062 31.0625 17.875 C 31.0625 18.050781 31.050781 18.308594 31.027344 18.613281 Z M 31.027344 18.613281 "/>
<path style=" stroke:none;fill-rule:nonzero;fill:rgb(0%,0%,0%);fill-opacity:1;" d="M 10.6875 22.40625 C 9.742188 22.40625 8.96875 23.179688 8.96875 24.125 C 8.96875 25.074219 9.742188 25.84375 10.6875 25.84375 C 11.636719 25.84375 12.40625 25.074219 12.40625 24.125 C 12.40625 23.179688 11.636719 22.40625 10.6875 22.40625 Z M 10.6875 24.90625 C 10.257812 24.90625 9.90625 24.558594 9.90625 24.125 C 9.90625 23.695312 10.257812 23.34375 10.6875 23.34375 C 11.117188 23.34375 11.46875 23.695312 11.46875 24.125 C 11.46875 24.558594 11.117188 24.90625 10.6875 24.90625 Z M 10.6875 24.90625 "/>
<path style=" stroke:none;fill-rule:nonzero;fill:rgb(0%,0%,0%);fill-opacity:1;" d="M 25.28125 22.40625 C 24.332031 22.40625 23.5625 23.179688 23.5625 24.125 C 23.5625 25.074219 24.332031 25.84375 25.28125 25.84375 C 26.230469 25.84375 27 25.074219 27 24.125 C 27 23.179688 26.230469 22.40625 25.28125 22.40625 Z M 25.28125 24.90625 C 24.851562 24.90625 24.5 24.558594 24.5 24.125 C 24.5 23.695312 24.851562 23.34375 25.28125 23.34375 C 25.710938 23.34375 26.0625 23.695312 26.0625 24.125 C 26.0625 24.558594 25.710938 24.90625 25.28125 24.90625 Z M 25.28125 24.90625 "/>
<path style=" stroke:none;fill-rule:nonzero;fill:rgb(0%,0%,0%);fill-opacity:1;" d="M 4.4375 11.78125 L 2.144531 11.78125 C 1.886719 11.78125 1.675781 11.992188 1.675781 12.25 C 1.675781 12.511719 1.886719 12.71875 2.144531 12.71875 L 4.4375 12.71875 C 4.695312 12.71875 4.90625 12.511719 4.90625 12.25 C 4.90625 11.992188 4.695312 11.78125 4.4375 11.78125 Z M 4.4375 11.78125 "/>
</g>
</svg>
