<?xml version="1.0" encoding="UTF-8"?>
<svg xmlns="http://www.w3.org/2000/svg" xmlns:xlink="http://www.w3.org/1999/xlink" width="32pt" height="32pt" viewBox="0 0 32 32" version="1.1">
<g id="surface1">
<path style=" stroke:none;fill-rule:nonzero;fill:rgb(100%,75.686275%,2.745098%);fill-opacity:1;" d="M 8 10 C 8 9.449219 7.550781 9 7 9 L 1 9 C 0.449219 9 0 9.449219 0 10 C 0 10.550781 0.449219 11 1 11 L 7 11 C 7.550781 11 8 10.550781 8 10 Z M 8 10 "/>
<path style=" stroke:none;fill-rule:nonzero;fill:rgb(100%,75.686275%,2.745098%);fill-opacity:1;" d="M 7 13 L 3 13 C 2.449219 13 2 13.449219 2 14 C 2 14.550781 2.449219 15 3 15 L 7 15 C 7.550781 15 8 14.550781 8 14 C 8 13.449219 7.550781 13 7 13 Z M 7 13 "/>
<path style=" stroke:none;fill-rule:nonzero;fill:rgb(100%,75.686275%,2.745098%);fill-opacity:1;" d="M 7 17 L 5 17 C 4.449219 17 4 17.449219 4 18 C 4 18.550781 4.449219 19 5 19 L 7 19 C 7.550781 19 8 18.550781 8 18 C 8 17.449219 7.550781 17 7 17 Z M 7 17 "/>
<path style=" stroke:none;fill-rule:nonzero;fill:rgb(95.686275%,26.27451%,21.176471%);fill-opacity:1;" d="M 31.859375 16.484375 L 28.859375 11.484375 C 28.679688 11.183594 28.351562 11 28 11 L 21 11 C 20.449219 11 20 11.449219 20 12 L 20 22 C 20 22.550781 20.449219 23 21 23 L 31 23 C 31.550781 23 32 22.550781 32 22 L 32 17 C 32 16.816406 31.953125 16.640625 31.859375 16.484375 Z M 31.859375 16.484375 "/>
<path style=" stroke:none;fill-rule:nonzero;fill:rgb(98.039216%,98.039216%,98.039216%);fill-opacity:1;" d="M 24 13 L 27.433594 13 L 29.835938 17 L 24 17 Z M 24 13 "/>
<path style=" stroke:none;fill-rule:nonzero;fill:rgb(100%,75.686275%,2.745098%);fill-opacity:1;" d="M 21 7 L 7 7 C 6.449219 7 6 7.449219 6 8 L 6 22 C 6 22.550781 6.449219 23 7 23 L 22 23 L 22 8 C 22 7.449219 21.550781 7 21 7 Z M 21 7 "/>
<path style=" stroke:none;fill-rule:nonzero;fill:rgb(98.039216%,98.039216%,98.039216%);fill-opacity:1;" d="M 29 22 C 29 23.105469 28.105469 24 27 24 C 25.894531 24 25 23.105469 25 22 C 25 20.894531 25.894531 20 27 20 C 28.105469 20 29 20.894531 29 22 Z M 29 22 "/>
<path style=" stroke:none;fill-rule:nonzero;fill:rgb(27.058824%,35.294118%,39.215686%);fill-opacity:1;" d="M 27 25 C 25.347656 25 24 23.652344 24 22 C 24 20.347656 25.347656 19 27 19 C 28.652344 19 30 20.347656 30 22 C 30 23.652344 28.652344 25 27 25 Z M 27 21 C 26.449219 21 26 21.449219 26 22 C 26 22.550781 26.449219 23 27 23 C 27.550781 23 28 22.550781 28 22 C 28 21.449219 27.550781 21 27 21 Z M 27 21 "/>
<path style=" stroke:none;fill-rule:nonzero;fill:rgb(95.686275%,26.27451%,21.176471%);fill-opacity:1;" d="M 22 23 L 7 23 C 6.449219 23 6 22.550781 6 22 L 6 19 L 22 19 Z M 22 23 "/>
<path style=" stroke:none;fill-rule:nonzero;fill:rgb(98.039216%,98.039216%,98.039216%);fill-opacity:1;" d="M 15 22 C 15 23.105469 14.105469 24 13 24 C 11.894531 24 11 23.105469 11 22 C 11 20.894531 11.894531 20 13 20 C 14.105469 20 15 20.894531 15 22 Z M 15 22 "/>
<path style=" stroke:none;fill-rule:nonzero;fill:rgb(27.058824%,35.294118%,39.215686%);fill-opacity:1;" d="M 13 25 C 11.347656 25 10 23.652344 10 22 C 10 20.347656 11.347656 19 13 19 C 14.652344 19 16 20.347656 16 22 C 16 23.652344 14.652344 25 13 25 Z M 13 21 C 12.449219 21 12 21.449219 12 22 C 12 22.550781 12.449219 23 13 23 C 13.550781 23 14 22.550781 14 22 C 14 21.449219 13.550781 21 13 21 Z M 13 21 "/>
</g>
</svg>
