<svg width="29" height="30" viewBox="0 0 29 30" fill="none" xmlns="http://www.w3.org/2000/svg">
<path fill-rule="evenodd" clip-rule="evenodd" d="M19.1556 23.7979C17.1212 26.0413 14.4067 27.411 11.4255 27.411C5.11535 27.411 0 21.2748 0 13.7055C0 6.13615 5.11535 0 11.4255 0C17.7356 0 22.8509 6.13615 22.8509 13.7055C22.8509 15.72 22.4886 17.6329 21.8379 19.3557L28.0752 24.4157C28.5041 24.7636 28.6319 25.4357 28.3607 25.9168L26.7827 28.7158C26.5114 29.1969 25.9439 29.3048 25.515 28.9569L19.1556 23.7979ZM18.2815 13.7055C18.2815 18.2471 15.2123 21.9288 11.4263 21.9288C7.64021 21.9288 4.571 18.2471 4.571 13.7055C4.571 9.16389 7.64021 5.4822 11.4263 5.4822C15.2123 5.4822 18.2815 9.16389 18.2815 13.7055Z" fill="#E2E2E2"/>
</svg>
