<?xml version="1.0" encoding="UTF-8"?>
<svg xmlns="http://www.w3.org/2000/svg" xmlns:xlink="http://www.w3.org/1999/xlink" width="32pt" height="32pt" viewBox="0 0 32 32" version="1.1">
<g id="surface1">
<path style=" stroke:none;fill-rule:nonzero;fill:rgb(0%,0%,0%);fill-opacity:1;" d="M 28.242188 22.191406 C 33.3125 17.121094 33.3125 8.871094 28.242188 3.800781 C 23.171875 -1.265625 14.921875 -1.265625 9.855469 3.800781 C 5.554688 8.101562 4.902344 14.5 7.898438 19.496094 C 7.898438 19.496094 8.113281 19.855469 7.824219 20.144531 C 6.164062 21.804688 1.1875 26.78125 1.1875 26.78125 C -0.132812 28.101562 -0.445312 29.945312 0.726562 31.117188 L 0.925781 31.316406 C 2.097656 32.488281 3.945312 32.175781 5.265625 30.855469 C 5.265625 30.855469 10.230469 25.890625 11.882812 24.234375 C 12.1875 23.929688 12.550781 24.144531 12.550781 24.144531 C 17.542969 27.140625 23.941406 26.492188 28.242188 22.191406 Z M 12.253906 19.789062 C 8.507812 16.042969 8.507812 9.949219 12.253906 6.203125 C 16 2.457031 22.09375 2.457031 25.839844 6.203125 C 29.585938 9.949219 29.585938 16.042969 25.839844 19.789062 C 22.09375 23.535156 16 23.535156 12.253906 19.789062 Z M 12.253906 19.789062 "/>
<path style=" stroke:none;fill-rule:nonzero;fill:rgb(0%,0%,0%);fill-opacity:1;" d="M 13.082031 12.222656 C 12.910156 12.222656 12.730469 12.191406 12.5625 12.117188 C 11.878906 11.828125 11.558594 11.042969 11.847656 10.359375 C 13.664062 6.070312 18.628906 4.054688 22.921875 5.871094 C 23.601562 6.160156 23.921875 6.949219 23.632812 7.628906 C 23.34375 8.3125 22.558594 8.632812 21.875 8.34375 C 18.949219 7.105469 15.558594 8.476562 14.320312 11.40625 C 14.105469 11.917969 13.605469 12.222656 13.082031 12.222656 Z M 13.082031 12.222656 "/>
</g>
</svg>
