<svg width="30" height="30" viewBox="0 0 30 30" fill="none" xmlns="http://www.w3.org/2000/svg">
<path fill-rule="evenodd" clip-rule="evenodd" d="M19.154 23.7992C17.1198 26.0427 14.4055 27.4124 11.4245 27.4124C5.11492 27.4124 0 21.2759 0 13.7062C0 6.13647 5.11492 0 11.4245 0C17.7341 0 22.849 6.13647 22.849 13.7062C22.849 15.7208 22.4867 17.6338 21.836 19.3567L28.6322 24.8708C29.0611 25.2188 29.1889 25.8909 28.9177 26.372L27.3398 29.1712C27.0686 29.6523 26.5011 29.7602 26.0722 29.4123L19.154 23.7992ZM18.2792 13.7062C18.2792 18.248 15.2102 21.9299 11.4245 21.9299C7.63875 21.9299 4.56979 18.248 4.56979 13.7062C4.56979 9.16436 7.63875 5.48248 11.4245 5.48248C15.2102 5.48248 18.2792 9.16436 18.2792 13.7062Z" fill="#FFC700"/>
</svg>
